<svg width="24" height="24" viewBox="0 0 24 24" fill="none" xmlns="http://www.w3.org/2000/svg">
<path d="M18 21V10C18 9.73479 17.8946 9.48043 17.7071 9.2929C17.5196 9.10536 17.2652 9 17 9H7C6.73478 9 6.48043 9.10536 6.29289 9.2929C6.10536 9.48043 6 9.73479 6 10V21M6 13H18M6 17H18M22 19C22 19.5304 21.7893 20.0391 21.4142 20.4142C21.0391 20.7893 20.5304 21 20 21H4C3.46957 21 2.96086 20.7893 2.58579 20.4142C2.21071 20.0391 2 19.5304 2 19V8C1.99978 7.62338 2.10591 7.25434 2.30617 6.93537C2.50643 6.6164 2.79269 6.36046 3.132 6.197L11.082 2.223C11.3659 2.07622 11.6809 1.99962 12.0005 1.99962C12.3201 1.99962 12.6351 2.07622 12.919 2.223L20.867 6.197C21.2065 6.36032 21.493 6.6162 21.6934 6.93518C21.8939 7.25416 22.0001 7.62327 22 8V19Z" stroke="#38334D" stroke-width="2" stroke-linecap="round" stroke-linejoin="round"/>
</svg>
