<svg width="131" height="32" viewBox="0 0 131 32" fill="none" xmlns="http://www.w3.org/2000/svg">
<path d="M18 25V14C18 13.7348 17.8946 13.4804 17.7071 13.2929C17.5196 13.1053 17.2652 13 17 13H7C6.73478 13 6.48043 13.1053 6.29289 13.2929C6.10536 13.4804 6 13.7348 6 14V25M6 17H18M6 21H18M22 23C22 23.5304 21.7893 24.0391 21.4142 24.4142C21.0391 24.7893 20.5304 25 20 25H4C3.46957 25 2.96086 24.7893 2.58579 24.4142C2.21071 24.0391 2 23.5304 2 23V12C1.99978 11.6234 2.10591 11.2543 2.30617 10.9354C2.50643 10.6164 2.79269 10.3604 3.132 10.197L11.082 6.22299C11.3659 6.0762 11.6809 5.9996 12.0005 5.9996C12.3201 5.9996 12.6351 6.0762 12.919 6.22299L20.867 10.197C21.2065 10.3603 21.493 10.6162 21.6934 10.9352C21.8939 11.2541 22.0001 11.6233 22 12V23Z" stroke="#38334D" stroke-width="2" stroke-linecap="round" stroke-linejoin="round"/>
<path d="M31.648 25L28.192 12.304H31.864L33.736 19.768L36.016 12.304H39.232L41.512 19.792L43.36 12.304H46.984L43.504 25H39.784L37.576 17.656L35.392 25H31.648ZM51.4735 25.216C50.5775 25.216 49.7775 25.048 49.0735 24.712C48.3855 24.376 47.8415 23.912 47.4415 23.32C47.0575 22.728 46.8655 22.048 46.8655 21.28C46.8655 20.064 47.3215 19.128 48.2335 18.472C49.1615 17.8 50.4495 17.464 52.0975 17.464C53.0895 17.464 54.0495 17.584 54.9775 17.824V17.2C54.9775 16.56 54.7695 16.088 54.3535 15.784C53.9535 15.464 53.3535 15.304 52.5535 15.304C52.0575 15.304 51.4975 15.384 50.8735 15.544C50.2655 15.704 49.5455 15.96 48.7135 16.312L47.3215 13.456C48.3615 12.992 49.3615 12.648 50.3215 12.424C51.2975 12.184 52.2735 12.064 53.2495 12.064C55.0095 12.064 56.3775 12.488 57.3535 13.336C58.3295 14.168 58.8175 15.344 58.8175 16.864V25H54.9775V24.232C54.4655 24.584 53.9215 24.84 53.3455 25C52.7855 25.144 52.1615 25.216 51.4735 25.216ZM50.5615 21.208C50.5615 21.608 50.7375 21.92 51.0895 22.144C51.4415 22.368 51.9295 22.48 52.5535 22.48C53.0175 22.48 53.4495 22.432 53.8495 22.336C54.2655 22.24 54.6415 22.088 54.9775 21.88V20.248C54.6095 20.152 54.2335 20.08 53.8495 20.032C53.4655 19.984 53.0735 19.96 52.6735 19.96C52.0015 19.96 51.4815 20.072 51.1135 20.296C50.7455 20.504 50.5615 20.808 50.5615 21.208ZM60.4084 25V12.304H64.2964V13.576C64.7124 13.064 65.2004 12.68 65.7604 12.424C66.3204 12.152 66.9444 12.016 67.6324 12.016C68.3204 12.032 68.8084 12.136 69.0964 12.328V15.712C68.8404 15.584 68.5524 15.488 68.2324 15.424C67.9124 15.36 67.5844 15.328 67.2484 15.328C66.6404 15.328 66.0724 15.472 65.5444 15.76C65.0324 16.032 64.6164 16.424 64.2964 16.936V25H60.4084ZM76.0323 25.24C74.7363 25.24 73.5603 24.952 72.5043 24.376C71.4643 23.784 70.6403 22.992 70.0323 22C69.4243 21.008 69.1203 19.896 69.1203 18.664C69.1203 17.432 69.4083 16.32 69.9843 15.328C70.5763 14.336 71.3763 13.552 72.3843 12.976C73.3923 12.384 74.5123 12.088 75.7443 12.088C76.9923 12.088 78.0963 12.392 79.0563 13C80.0163 13.592 80.7683 14.408 81.3123 15.448C81.8723 16.488 82.1523 17.68 82.1523 19.024V19.984H73.1043C73.2803 20.384 73.5123 20.736 73.8003 21.04C74.1043 21.344 74.4643 21.584 74.8803 21.76C75.2963 21.92 75.7443 22 76.2243 22C76.7523 22 77.2323 21.92 77.6643 21.76C78.0963 21.584 78.4643 21.344 78.7683 21.04L81.3363 23.32C80.5363 23.992 79.7123 24.48 78.8643 24.784C78.0323 25.088 77.0883 25.24 76.0323 25.24ZM73.0323 17.272H78.3363C78.2083 16.856 78.0083 16.504 77.7363 16.216C77.4803 15.912 77.1763 15.68 76.8243 15.52C76.4723 15.344 76.0883 15.256 75.6723 15.256C75.2403 15.256 74.8483 15.336 74.4963 15.496C74.1443 15.656 73.8403 15.888 73.5843 16.192C73.3443 16.48 73.1603 16.84 73.0323 17.272ZM83.8497 25L85.8417 15.544H83.1537L83.8257 12.304H86.5377L86.7777 11.176C87.0817 9.8 87.6897 8.744 88.6017 8.008C89.5297 7.272 90.7137 6.904 92.1537 6.904C92.5857 6.904 93.0417 6.944 93.5217 7.024C94.0177 7.088 94.4097 7.184 94.6977 7.312L94.0257 10.528C93.7537 10.432 93.4737 10.36 93.1857 10.312C92.9137 10.264 92.6337 10.24 92.3457 10.24C91.8337 10.24 91.4257 10.352 91.1217 10.576C90.8177 10.784 90.6257 11.104 90.5457 11.536L90.3777 12.304H93.6177L92.9457 15.544H89.6817L87.6657 25H83.8497ZM91.8258 25L95.4018 8.2L99.3858 7.36L95.6418 25H91.8258ZM104.446 25.24C103.23 25.24 102.142 24.976 101.182 24.448C100.222 23.904 99.4618 23.168 98.9018 22.24C98.3418 21.312 98.0618 20.272 98.0618 19.12C98.0618 18.16 98.2458 17.256 98.6138 16.408C98.9978 15.544 99.5178 14.792 100.174 14.152C100.846 13.496 101.614 12.984 102.478 12.616C103.358 12.248 104.286 12.064 105.262 12.064C106.478 12.064 107.558 12.336 108.502 12.88C109.462 13.408 110.222 14.136 110.782 15.064C111.342 15.976 111.622 17.016 111.622 18.184C111.622 19.144 111.43 20.048 111.046 20.896C110.678 21.744 110.158 22.496 109.486 23.152C108.83 23.808 108.07 24.32 107.206 24.688C106.342 25.056 105.422 25.24 104.446 25.24ZM104.614 21.88C105.062 21.88 105.478 21.792 105.862 21.616C106.262 21.424 106.614 21.168 106.918 20.848C107.222 20.528 107.454 20.152 107.614 19.72C107.79 19.288 107.878 18.832 107.878 18.352C107.878 17.776 107.758 17.272 107.518 16.84C107.278 16.392 106.942 16.048 106.51 15.808C106.094 15.552 105.614 15.424 105.07 15.424C104.622 15.424 104.198 15.52 103.798 15.712C103.414 15.888 103.07 16.136 102.766 16.456C102.462 16.776 102.222 17.152 102.046 17.584C101.886 18.016 101.806 18.472 101.806 18.952C101.806 19.512 101.926 20.016 102.166 20.464C102.406 20.912 102.734 21.264 103.15 21.52C103.582 21.76 104.07 21.88 104.614 21.88ZM113.318 25L112.598 12.304H116.15L116.39 19.768L120.182 12.304H123.35L123.998 19.768L127.406 12.304H131.006L124.934 25H121.262L120.686 17.632L116.966 25H113.318Z" fill="#38334D"/>
</svg>
